<svg width="145" height="51" viewBox="0 0 145 51" fill="none" xmlns="http://www.w3.org/2000/svg">
<rect y="0.0488281" width="144.719" height="50" rx="10" fill="url(#paint0_linear_314_4906)"/>
<path d="M37.96 30.2668C36.664 31.3648 34.882 32.2648 32.578 32.2648C28.654 32.2648 25.954 29.5108 25.954 25.7848V25.7488C25.954 22.1668 28.744 19.2328 32.56 19.2328C34.828 19.2328 36.196 19.8448 37.51 20.9608L35.764 23.0668C34.792 22.2568 33.928 21.7888 32.47 21.7888C30.454 21.7888 28.852 23.5708 28.852 25.7128V25.7488C28.852 28.0528 30.436 29.7448 32.668 29.7448C33.676 29.7448 34.576 29.4928 35.278 28.9888V27.1888H32.488V24.7948H37.96V30.2668ZM43.2732 21.3388H40.3932V18.9088H43.2732V21.3388ZM43.2012 32.0488H40.4652V22.4008H43.2012V32.0488ZM51.1889 31.6528C50.6129 31.9948 49.9469 32.2108 49.0289 32.2108C47.3549 32.2108 46.2209 31.5448 46.2209 29.3128V24.7408H45.0689V22.4008H46.2209V19.9348H48.9569V22.4008H51.2249V24.7408H48.9569V28.8628C48.9569 29.4928 49.2269 29.7988 49.8389 29.7988C50.3429 29.7988 50.7929 29.6728 51.1889 29.4568V31.6528ZM64.1856 32.0488H61.4136V26.9908H56.3016V32.0488H53.5296V19.4488H56.3016V24.4348H61.4136V19.4488H64.1856V32.0488ZM75.6834 32.0488H72.9474V30.6808C72.3174 31.4908 71.5074 32.2288 70.1214 32.2288C68.0514 32.2288 66.8454 30.8608 66.8454 28.6468V22.4008H69.5814V27.7828C69.5814 29.0788 70.1934 29.7448 71.2374 29.7448C72.2814 29.7448 72.9474 29.0788 72.9474 27.7828V22.4008H75.6834V32.0488ZM88.2662 27.2428C88.2662 30.4648 86.1602 32.2288 83.8742 32.2288C82.4162 32.2288 81.5162 31.5628 80.8682 30.7888V32.0488H78.1322V18.9088H80.8682V23.7868C81.5342 22.8868 82.4522 22.2208 83.8742 22.2208C86.1242 22.2208 88.2662 23.9848 88.2662 27.2068V27.2428ZM85.5302 27.2428V27.2068C85.5302 25.6048 84.4502 24.5428 83.1722 24.5428C81.8942 24.5428 80.8322 25.6048 80.8322 27.2068V27.2428C80.8322 28.8448 81.8942 29.9068 83.1722 29.9068C84.4502 29.9068 85.5302 28.8628 85.5302 27.2428Z" fill="white"/>
<mask id="mask0_314_4906" style="mask-type:luminance" maskUnits="userSpaceOnUse" x="100" y="15" width="20" height="21">
<path d="M119.719 25.0488C119.719 19.526 115.305 15.0488 109.86 15.0488C104.414 15.0488 100 19.526 100 25.0488C100 30.5717 104.414 35.0488 109.86 35.0488C115.305 35.0488 119.719 30.5717 119.719 25.0488Z" fill="white"/>
</mask>
<g mask="url(#mask0_314_4906)">
<path d="M109.858 15.2568C104.415 15.2568 100 19.7518 100 25.2968C100 29.7318 102.825 33.4943 106.744 34.8232C107.237 34.9155 107.417 34.6055 107.417 34.3395C107.417 34.1005 107.408 33.4693 107.403 32.6318C104.661 33.2381 104.082 31.2856 104.082 31.2856C103.635 30.1256 102.987 29.8168 102.987 29.8168C102.092 29.1943 103.054 29.2068 103.054 29.2068C104.044 29.2781 104.564 30.2418 104.564 30.2418C105.444 31.7756 106.872 31.3331 107.434 31.0756C107.523 30.4268 107.778 29.9843 108.06 29.7331C105.871 29.4793 103.569 28.6181 103.569 24.7718C103.569 23.6756 103.954 22.7793 104.585 22.0768C104.483 21.8231 104.145 20.8018 104.681 19.4206C104.681 19.4206 105.509 19.1506 107.392 20.4493C108.179 20.2268 109.022 20.1156 109.861 20.1118C110.698 20.1168 111.542 20.2268 112.33 20.4506C114.211 19.1518 115.038 19.4218 115.038 19.4218C115.576 20.8043 115.238 21.8243 115.137 22.0781C115.769 22.7806 116.15 23.6768 116.15 24.7731C116.15 28.6293 113.845 29.4781 111.649 29.7268C112.003 30.0368 112.318 30.6493 112.318 31.5856C112.318 32.9281 112.306 34.0105 112.306 34.3395C112.306 34.6082 112.484 34.9205 112.984 34.8218C116.897 33.4918 119.719 29.7306 119.719 25.2968C119.719 19.7518 115.305 15.2568 109.858 15.2568Z" fill="white"/>
</g>
<defs>
<linearGradient id="paint0_linear_314_4906" x1="72.3597" y1="0.0488281" x2="72.3597" y2="50.0488" gradientUnits="userSpaceOnUse">
<stop stop-color="#231F20"/>
<stop offset="1" stop-color="#514A4C"/>
</linearGradient>
</defs>
</svg>
