<svg width="26" height="27" viewBox="0 0 26 27" fill="none" xmlns="http://www.w3.org/2000/svg">
<g clip-path="url(#clip0_314_6624)">
<path d="M13 2.61689C16.4734 2.61689 16.8848 2.63213 18.2508 2.69307C19.5203 2.74893 20.2059 2.96221 20.6629 3.13994C21.2672 3.37354 21.7039 3.65791 22.1559 4.10986C22.6129 4.56689 22.8922 4.99854 23.1258 5.60283C23.3035 6.05986 23.5168 6.75049 23.5727 8.01494C23.6336 9.38603 23.6488 9.79736 23.6488 13.2657C23.6488 16.7392 23.6336 17.1505 23.5727 18.5165C23.5168 19.786 23.3035 20.4716 23.1258 20.9286C22.8922 21.5329 22.6078 21.9696 22.1559 22.4216C21.6988 22.8786 21.2672 23.1579 20.6629 23.3915C20.2059 23.5692 19.5152 23.7825 18.2508 23.8384C16.8797 23.8993 16.4684 23.9146 13 23.9146C9.52656 23.9146 9.11524 23.8993 7.74922 23.8384C6.47969 23.7825 5.79414 23.5692 5.33711 23.3915C4.73281 23.1579 4.29609 22.8735 3.84414 22.4216C3.38711 21.9646 3.10781 21.5329 2.87422 20.9286C2.69648 20.4716 2.4832 19.781 2.42734 18.5165C2.36641 17.1454 2.35117 16.7341 2.35117 13.2657C2.35117 9.79229 2.36641 9.38096 2.42734 8.01494C2.4832 6.74541 2.69648 6.05986 2.87422 5.60283C3.10781 4.99854 3.39219 4.56182 3.84414 4.10986C4.30117 3.65283 4.73281 3.37354 5.33711 3.13994C5.79414 2.96221 6.48477 2.74893 7.74922 2.69307C9.11524 2.63213 9.52656 2.61689 13 2.61689ZM13 0.275879C9.4707 0.275879 9.02891 0.291113 7.64258 0.352051C6.26133 0.412988 5.31172 0.636426 4.48906 0.956348C3.63086 1.2915 2.90469 1.7333 2.18359 2.45947C1.45742 3.18057 1.01563 3.90674 0.680469 4.75986C0.360547 5.5876 0.137109 6.53213 0.0761719 7.91338C0.0152344 9.30478 0 9.74658 0 13.2759C0 16.8052 0.0152344 17.247 0.0761719 18.6333C0.137109 20.0146 0.360547 20.9642 0.680469 21.7868C1.01563 22.645 1.45742 23.3712 2.18359 24.0923C2.90469 24.8134 3.63086 25.2603 4.48398 25.5903C5.31172 25.9103 6.25625 26.1337 7.6375 26.1946C9.02383 26.2556 9.46563 26.2708 12.9949 26.2708C16.5242 26.2708 16.966 26.2556 18.3523 26.1946C19.7336 26.1337 20.6832 25.9103 21.5059 25.5903C22.359 25.2603 23.0852 24.8134 23.8063 24.0923C24.5273 23.3712 24.9742 22.645 25.3043 21.7919C25.6242 20.9642 25.8477 20.0196 25.9086 18.6384C25.9695 17.2521 25.9848 16.8103 25.9848 13.281C25.9848 9.75166 25.9695 9.30986 25.9086 7.92354C25.8477 6.54229 25.6242 5.59268 25.3043 4.77002C24.9844 3.90674 24.5426 3.18057 23.8164 2.45947C23.0953 1.73838 22.3691 1.2915 21.516 0.961426C20.6883 0.641504 19.7438 0.418066 18.3625 0.357129C16.9711 0.291113 16.5293 0.275879 13 0.275879Z" fill="#FF5E3C"/>
<path d="M12.998 6.59814C9.31133 6.59814 6.32031 9.58916 6.32031 13.2759C6.32031 16.9626 9.31133 19.9536 12.998 19.9536C16.6848 19.9536 19.6758 16.9626 19.6758 13.2759C19.6758 9.58916 16.6848 6.59814 12.998 6.59814ZM12.998 17.6075C10.6063 17.6075 8.66641 15.6677 8.66641 13.2759C8.66641 10.8841 10.6063 8.94424 12.998 8.94424C15.3898 8.94424 17.3297 10.8841 17.3297 13.2759C17.3297 15.6677 15.3898 17.6075 12.998 17.6075Z" fill="#FF5E3C"/>
<path d="M21.5008 6.33487C21.5008 7.19815 20.8 7.89385 19.9418 7.89385C19.0785 7.89385 18.3828 7.19307 18.3828 6.33487C18.3828 5.47158 19.0836 4.77588 19.9418 4.77588C20.8 4.77588 21.5008 5.47666 21.5008 6.33487Z" fill="#FF5E3C"/>
</g>
<defs>
<clipPath id="clip0_314_6624">
<rect width="26" height="26" fill="white" transform="translate(0 0.275879)"/>
</clipPath>
</defs>
</svg>
