<svg width="29" height="23" viewBox="0 0 29 23" fill="none" xmlns="http://www.w3.org/2000/svg">
<path d="M24.0253 2.12339C22.2162 1.28154 20.2763 0.661235 18.2479 0.305932C18.211 0.299076 18.174 0.316235 18.155 0.350477C17.9055 0.800553 17.6291 1.38767 17.4356 1.84919C15.254 1.5179 13.0835 1.5179 10.9466 1.84919C10.753 1.37745 10.4666 0.800553 10.216 0.350477C10.197 0.317371 10.16 0.300212 10.1231 0.305932C8.09589 0.660061 6.15593 1.28033 4.34567 2.12339C4.32998 2.13025 4.31657 2.14169 4.30765 2.1565C0.62793 7.73218 -0.380148 13.1709 0.114367 18.542C0.116571 18.5683 0.131137 18.5934 0.151267 18.6094C2.57903 20.4177 4.93082 21.5155 7.23885 22.2431C7.27575 22.2546 7.31489 22.2409 7.33838 22.21C7.88436 21.4538 8.37103 20.6565 8.78831 19.818C8.81293 19.7689 8.7894 19.7107 8.73909 19.6912C7.96712 19.3942 7.23205 19.0321 6.52496 18.6209C6.46905 18.5877 6.46453 18.5066 6.51603 18.4678C6.66482 18.3547 6.81369 18.237 6.95576 18.1182C6.98149 18.0965 7.01731 18.092 7.04752 18.1056C11.6927 20.2567 16.7217 20.2567 21.3121 18.1056C21.3423 18.0908 21.3781 18.0954 21.405 18.117C21.5471 18.2359 21.6959 18.3546 21.8458 18.4677C21.8973 18.5066 21.8939 18.5877 21.838 18.6208C21.1309 19.0401 20.3959 19.3942 19.6228 19.69C19.5724 19.7094 19.55 19.7688 19.5747 19.8179C20.001 20.6552 20.4876 21.4526 21.0235 22.2088C21.0459 22.2409 21.0861 22.2546 21.1231 22.2431C23.4423 21.5155 25.7941 20.4176 28.2219 18.6093C28.2432 18.5934 28.2566 18.5694 28.2589 18.5431C28.8505 12.3334 27.2673 6.93934 24.0621 2.1576C24.0544 2.14169 24.0409 2.13025 24.0253 2.12339ZM9.48211 15.2715C8.08357 15.2715 6.93122 13.9693 6.93122 12.37C6.93122 10.7707 8.0612 9.46851 9.48211 9.46851C10.9141 9.46851 12.0553 10.7822 12.0329 12.37C12.0329 13.9693 10.9029 15.2715 9.48211 15.2715ZM18.9135 15.2715C17.515 15.2715 16.3627 13.9693 16.3627 12.37C16.3627 10.7707 17.4927 9.46851 18.9135 9.46851C20.3455 9.46851 21.4867 10.7822 21.4644 12.37C21.4644 13.9693 20.3456 15.2715 18.9135 15.2715Z" fill="#FF5E3C"/>
</svg>
