<svg width="29" height="30" viewBox="0 0 29 30" fill="none" xmlns="http://www.w3.org/2000/svg">
<mask id="mask0_314_6640" style="mask-type:luminance" maskUnits="userSpaceOnUse" x="0" y="0" width="29" height="30">
<path d="M28.7658 15.2758C28.7658 7.32622 22.4118 0.881836 14.5738 0.881836C6.7358 0.881836 0.381836 7.32622 0.381836 15.2758C0.381836 23.2253 6.7358 29.6697 14.5738 29.6697C22.4118 29.6697 28.7658 23.2253 28.7658 15.2758Z" fill="white"/>
</mask>
<g mask="url(#mask0_314_6640)">
<path d="M14.5719 1.1814C6.73648 1.1814 0.381836 7.65147 0.381836 15.6329C0.381836 22.0166 4.44784 27.4323 10.0891 29.345C10.7987 29.478 11.0579 29.0318 11.0579 28.6488C11.0579 28.3049 11.0452 27.3964 11.0381 26.1909C7.09127 27.0635 6.25731 24.2531 6.25731 24.2531C5.61344 22.5834 4.68201 22.139 4.68201 22.139C3.3924 21.243 4.77761 21.2609 4.77761 21.2609C6.20241 21.3635 6.95085 22.7507 6.95085 22.7507C8.21767 24.9584 10.2736 24.3215 11.0826 23.9508C11.2103 23.017 11.5774 22.3801 11.9838 22.0184C8.83316 21.6532 5.51933 20.4135 5.51933 14.8772C5.51933 13.2993 6.07282 12.0092 6.98111 10.9981C6.83396 10.6328 6.34769 9.16284 7.11966 7.17469C7.11966 7.17469 8.31179 6.78606 11.0225 8.65545C12.1541 8.33518 13.3675 8.17507 14.5757 8.16965C15.7801 8.17685 16.9954 8.33519 18.1289 8.65727C20.8377 6.78784 22.0279 7.17647 22.0279 7.17647C22.8014 9.16643 22.3155 10.6346 22.1699 10.9999C23.08 12.0111 23.6283 13.3011 23.6283 14.879C23.6283 20.4297 20.3107 21.6514 17.1496 22.0094C17.6587 22.4556 18.1128 23.3373 18.1128 24.6849C18.1128 26.6173 18.0953 28.1753 18.0953 28.6488C18.0953 29.0356 18.3507 29.4852 19.0708 29.3431C24.7031 27.4287 28.7658 22.0148 28.7658 15.6329C28.7658 7.65147 22.4115 1.1814 14.5719 1.1814Z" fill="#FF5E3C"/>
</g>
</svg>
