<svg width="26" height="27" viewBox="0 0 26 27" fill="none" xmlns="http://www.w3.org/2000/svg">
<g clip-path="url(#clip0_314_6630)">
<path d="M24.0725 0.275879H1.9166C0.855273 0.275879 -0.00292969 1.11377 -0.00292969 2.14971V24.397C-0.00292969 25.4329 0.855273 26.2759 1.9166 26.2759H24.0725C25.1338 26.2759 25.9971 25.4329 25.9971 24.4021V2.14971C25.9971 1.11377 25.1338 0.275879 24.0725 0.275879ZM7.71074 22.4317H3.85137V10.0208H7.71074V22.4317ZM5.78105 8.32979C4.54199 8.32979 3.5416 7.32939 3.5416 6.09541C3.5416 4.86143 4.54199 3.86104 5.78105 3.86104C7.01504 3.86104 8.01543 4.86143 8.01543 6.09541C8.01543 7.32432 7.01504 8.32979 5.78105 8.32979ZM22.1529 22.4317H18.2986V16.3989C18.2986 14.9618 18.2732 13.1083 16.2928 13.1083C14.2869 13.1083 13.9822 14.6774 13.9822 16.2974V22.4317H10.133V10.0208H13.8299V11.7169H13.8807C14.3936 10.7419 15.6529 9.71104 17.5268 9.71104C21.4318 9.71104 22.1529 12.2806 22.1529 15.622V22.4317Z" fill="#FF5E3C"/>
</g>
<defs>
<clipPath id="clip0_314_6630">
<rect width="26" height="26" fill="white" transform="translate(-0.00292969 0.275879)"/>
</clipPath>
</defs>
</svg>
