<svg width="33" height="33" viewBox="0 0 33 33" fill="none" xmlns="http://www.w3.org/2000/svg">
<g clip-path="url(#clip0_314_6634)">
<path d="M32.3818 15.7759C32.3818 13.2759 30.3818 11.2759 27.8818 11.2759C26.7818 11.2759 25.7818 11.6759 24.9818 12.3759C22.4818 10.9759 19.4818 10.2759 16.3818 10.2759C13.2818 10.2759 10.2818 10.9759 7.78184 12.3759C6.98184 11.6759 5.98184 11.2759 4.88184 11.2759C2.38184 11.2759 0.381836 13.2759 0.381836 15.7759C0.381836 17.2759 1.18184 18.7759 2.38184 19.5759V20.2759C2.38184 25.7759 8.68184 30.2759 16.3818 30.2759C24.0818 30.2759 30.3818 25.7759 30.3818 20.2759C30.3818 20.0759 30.3818 19.7759 30.3818 19.5759C31.5818 18.7759 32.3818 17.2759 32.3818 15.7759ZM9.38184 19.2759C9.38184 17.5759 10.6818 16.2759 12.3818 16.2759C14.0818 16.2759 15.3818 17.5759 15.3818 19.2759C15.3818 20.9759 14.0818 22.2759 12.3818 22.2759C10.6818 22.2759 9.38184 20.9759 9.38184 19.2759ZM21.9818 25.0759C20.8818 25.9759 18.3818 26.2759 16.3818 26.2759C14.3818 26.2759 11.8818 25.9759 10.7818 25.0759C10.3818 24.7759 10.2818 24.0759 10.5818 23.6759C10.8818 23.2759 11.5818 23.1759 11.9818 23.4759C12.3818 23.7759 13.8818 24.2759 16.3818 24.2759C18.8818 24.2759 20.3818 23.7759 20.7818 23.4759C21.1818 23.1759 21.8818 23.1759 22.1818 23.6759C22.4818 24.1759 22.4818 24.6759 21.9818 25.0759ZM20.3818 22.2759C18.6818 22.2759 17.3818 20.9759 17.3818 19.2759C17.3818 17.5759 18.6818 16.2759 20.3818 16.2759C22.0818 16.2759 23.3818 17.5759 23.3818 19.2759C23.3818 20.9759 22.0818 22.2759 20.3818 22.2759Z" fill="#FF5E3C"/>
<path d="M16.3814 12.2759C16.1814 12.2759 16.0814 12.2759 15.9814 12.1759C15.4814 11.9759 15.2814 11.3759 15.5814 10.8759L18.5814 4.87591C18.7814 4.37591 19.3814 4.17591 19.8814 4.47591L23.8814 6.47591C24.3814 6.67592 24.5814 7.27592 24.2814 7.77592C24.0814 8.27592 23.4814 8.47592 22.9814 8.17592L19.8814 6.57592L17.2814 11.6759C17.0814 12.0759 16.7814 12.2759 16.3814 12.2759Z" fill="#FF5E3C"/>
<path d="M25.3818 11.2759C23.6818 11.2759 22.3818 9.97588 22.3818 8.27588C22.3818 6.57588 23.6818 5.27588 25.3818 5.27588C27.0818 5.27588 28.3818 6.57588 28.3818 8.27588C28.3818 9.97588 27.0818 11.2759 25.3818 11.2759Z" fill="#FF5E3C"/>
</g>
<defs>
<clipPath id="clip0_314_6634">
<rect width="32" height="32" fill="white" transform="translate(0.381836 0.275879)"/>
</clipPath>
</defs>
</svg>
